<svg width="34" height="34" viewBox="0 0 34 34" fill="none" xmlns="http://www.w3.org/2000/svg">
<path d="M28.6927 5.30039C25.5317 2.15039 21.3171 0.400391 16.8683 0.400391C7.61952 0.400391 0.126837 7.86706 0.126837 17.0837C0.126837 20.0004 0.946351 22.9171 2.35123 25.3671L0.00976562 34.0004L8.90733 31.6671C11.3659 32.9504 14.0585 33.6504 16.8683 33.6504C26.1171 33.6504 33.6098 26.1837 33.6098 16.9671C33.4927 12.6504 31.8537 8.45039 28.6927 5.30039ZM24.9464 23.0337C24.5951 23.9671 22.9561 24.9004 22.1366 25.0171C21.4342 25.1337 20.4976 25.1337 19.561 24.9004C18.9756 24.6671 18.1561 24.4337 17.2195 23.9671C13.0049 22.2171 10.3122 18.0171 10.0781 17.6671C9.84391 17.4337 8.32196 15.4504 8.32196 13.3504C8.32196 11.2504 9.37562 10.3171 9.72684 9.85039C10.0781 9.38372 10.5463 9.38372 10.8976 9.38372C11.1317 9.38372 11.4829 9.38372 11.7171 9.38372C11.9512 9.38372 12.3024 9.26706 12.6537 10.0837C13.0049 10.9004 13.8244 13.0004 13.9415 13.1171C14.0585 13.3504 14.0585 13.5837 13.9415 13.8171C13.8244 14.0504 13.7073 14.2837 13.4732 14.5171C13.239 14.7504 13.0049 15.1004 12.8878 15.2171C12.6537 15.4504 12.4195 15.6837 12.6537 16.0337C12.8878 16.5004 13.7073 17.7837 14.9951 18.9504C16.6342 20.3504 17.922 20.8171 18.3903 21.0504C18.8585 21.2837 19.0927 21.1671 19.3268 20.9337C19.561 20.7004 20.3805 19.7671 20.6146 19.3004C20.8488 18.8337 21.2 18.9504 21.5512 19.0671C21.9024 19.1837 24.0098 20.2337 24.361 20.4671C24.8293 20.7004 25.0634 20.8171 25.1805 20.9337C25.2976 21.2837 25.2976 22.1004 24.9464 23.0337Z" fill="#FAFAFA"/>
</svg>
