<svg width="34" height="38" viewBox="0 0 34 38" fill="none" xmlns="http://www.w3.org/2000/svg">
<path d="M26.0161 1.27385C19.9176 0.109237 13.5846 0.109237 7.4862 1.27385C4.78882 1.85616 1.38778 5.11708 0.801389 7.67924C-0.254109 12.6871 -0.254109 17.8114 0.801389 22.8192C1.50505 25.3814 4.9061 28.6423 7.4862 29.2246C7.60348 29.2246 7.72075 29.3411 7.72075 29.4576V36.7946C7.72075 37.144 8.18987 37.3769 8.42443 37.0276L11.9428 33.4173C11.9428 33.4173 14.7574 30.5057 15.2265 30.0399C15.2265 30.0399 15.3438 29.9234 15.4611 29.9234C18.9794 30.0399 22.615 29.6905 26.1333 29.1082C28.8307 28.5259 32.2318 25.2649 32.8181 22.7028C33.8736 17.6949 33.8736 12.5706 32.8181 7.56278C32.1145 5.11708 28.7134 1.85616 26.0161 1.27385ZM26.1333 23.1686C25.5469 24.3332 24.8433 25.2649 23.6705 25.8472C23.3187 25.9637 22.9668 26.0802 22.615 26.1966C22.1459 26.0802 21.7941 25.9637 21.4422 25.8472C17.6893 24.3332 14.171 22.2369 11.3564 19.2089C9.83176 17.462 8.5417 15.4822 7.4862 13.3859C7.01709 12.3377 6.54799 11.406 6.19615 10.3579C5.84432 9.42616 6.4307 8.49447 7.01709 7.7957C7.60348 7.09693 8.30715 6.63108 9.12809 6.2817C9.71448 5.93231 10.3009 6.16524 10.77 6.63109C11.7082 7.7957 12.6464 8.96032 13.3501 10.2414C13.8192 11.0566 13.7019 11.9883 12.881 12.5706C12.6464 12.6871 12.5291 12.8035 12.2946 13.0365C12.1773 13.1529 11.9427 13.2694 11.8255 13.5023C11.5909 13.8517 11.5909 14.2011 11.7082 14.5505C12.6464 17.2291 14.4056 19.3254 17.103 20.49C17.5721 20.7229 17.9239 20.8394 18.5103 20.8394C19.3312 20.7229 19.6831 19.7912 20.2695 19.3254C20.8558 18.8596 21.5595 18.8596 22.2632 19.2089C22.8496 19.5583 23.4359 20.0242 24.1396 20.49C24.726 20.9559 25.3124 21.3052 25.8988 21.7711C26.2506 22.004 26.3679 22.5863 26.1333 23.1686ZM21.2077 14.434C20.9731 14.434 21.0904 14.434 21.2077 14.434C20.7386 14.434 20.6213 14.2011 20.504 13.8517C20.504 13.6188 20.504 13.2694 20.3867 13.0365C20.2694 12.5706 20.0349 12.1048 19.5658 11.7554C19.3312 11.6389 19.0967 11.5225 18.8621 11.406C18.5103 11.2895 18.2757 11.2895 17.9239 11.2895C17.5721 11.1731 17.4548 10.9402 17.4548 10.5908C17.4548 10.3579 17.8066 10.1249 18.0412 10.1249C19.9176 10.2414 21.3249 11.2895 21.5595 13.5023C21.5595 13.6188 21.5595 13.8517 21.5595 13.9682C21.5595 14.2011 21.4422 14.434 21.2077 14.434ZM20.0349 9.3097C19.4485 9.07678 18.8621 8.84385 18.1585 8.72739C17.9239 8.72739 17.5721 8.61093 17.3375 8.61093C16.9857 8.61093 16.7511 8.37801 16.8684 8.02862C16.8684 7.67924 17.103 7.44632 17.4548 7.56278C18.6276 7.67924 19.6831 7.91216 20.7386 8.37801C22.8496 9.42616 24.0223 11.1731 24.3742 13.5023C24.3742 13.6188 24.3742 13.7352 24.3742 13.8517C24.3742 14.0846 24.3742 14.3175 24.3742 14.6669C24.3742 14.7834 24.3742 14.8999 24.3742 15.0163C24.2569 15.4822 23.4359 15.5986 23.3187 15.0163C23.3187 14.8999 23.2014 14.6669 23.2014 14.5505C23.2014 13.5023 22.9668 12.4542 22.4977 11.5225C21.7941 10.4743 20.9731 9.77555 20.0349 9.3097ZM26.3679 16.2974C26.016 16.2974 25.7815 15.948 25.7815 15.5986C25.7815 14.8999 25.6642 14.2011 25.5469 13.5023C25.0778 9.77555 22.0286 6.74755 18.393 6.16524C17.8066 6.04878 17.2202 6.04878 16.7511 5.93232C16.3993 5.93232 15.9302 5.93232 15.8129 5.46647C15.6956 5.11709 16.0475 4.7677 16.3993 4.7677C16.5166 4.7677 16.6339 4.7677 16.6339 4.7677C16.8684 4.7677 21.4422 4.88416 16.6339 4.7677C21.5595 4.88416 25.6642 8.14509 26.4852 13.0365C26.6024 13.8517 26.7197 14.6669 26.7197 15.5986C26.9543 15.948 26.7197 16.2974 26.3679 16.2974Z" fill="#FAFAFA"/>
</svg>
