<svg width="32" height="33" viewBox="0 0 32 33" fill="none" xmlns="http://www.w3.org/2000/svg">
<path d="M11.1835 12.3045C12.1115 14.2373 13.3765 16.0488 14.9786 17.6509C16.5807 19.253 18.3922 20.5181 20.3251 21.4461C20.4913 21.5259 20.5745 21.5658 20.6796 21.5965C21.0534 21.7054 21.5125 21.6272 21.829 21.4005C21.9181 21.3367 21.9943 21.2605 22.1467 21.1081C22.6129 20.6419 22.8459 20.4089 23.0803 20.2565C23.9642 19.6818 25.1036 19.6818 25.9875 20.2565C26.2218 20.4089 26.4549 20.6419 26.9211 21.1081L27.1809 21.3679C27.8895 22.0765 28.2438 22.4308 28.4362 22.8113C28.819 23.568 28.819 24.4617 28.4362 25.2185C28.2438 25.599 27.8895 25.9533 27.1809 26.6619L26.9707 26.872C26.2645 27.5782 25.9115 27.9313 25.4314 28.201C24.8987 28.5002 24.0714 28.7153 23.4605 28.7135C22.9099 28.7119 22.5336 28.6051 21.781 28.3915C17.7364 27.2435 13.92 25.0775 10.736 21.8936C7.552 18.7096 5.38604 14.8931 4.23808 10.8486C4.02447 10.096 3.91766 9.71969 3.91603 9.16909C3.91421 8.55813 4.12936 7.73081 4.42859 7.19813C4.69825 6.71809 5.05133 6.36501 5.7575 5.65884L5.96767 5.44866C6.67626 4.74007 7.03056 4.38578 7.41107 4.19332C8.16782 3.81056 9.0615 3.81056 9.81825 4.19332C10.1988 4.38578 10.5531 4.74007 11.2616 5.44866L11.5215 5.70849C11.9876 6.17463 12.2207 6.4077 12.3731 6.64207C12.9477 7.52593 12.9477 8.66537 12.3731 9.54922C12.2207 9.78359 11.9876 10.0167 11.5215 10.4828C11.3691 10.6352 11.2928 10.7114 11.2291 10.8005C11.0024 11.1171 10.9241 11.5761 11.0331 11.9499C11.0637 12.0551 11.1036 12.1382 11.1835 12.3045Z" stroke="#FAFAFA" stroke-width="2" stroke-linecap="round" stroke-linejoin="round"/>
</svg>
