<svg width="64" height="64" viewBox="0 0 64 64" fill="none" xmlns="http://www.w3.org/2000/svg">
<rect x="0.00976562" width="64" height="64" fill="#212121"/>
<path d="M44.6927 19.3004C41.5317 16.1504 37.3171 14.4004 32.8683 14.4004C23.6195 14.4004 16.1268 21.8671 16.1268 31.0837C16.1268 34.0004 16.9464 36.9171 18.3512 39.3671L16.0098 48.0004L24.9073 45.6671C27.3659 46.9504 30.0585 47.6504 32.8683 47.6504C42.1171 47.6504 49.6098 40.1837 49.6098 30.9671C49.4927 26.6504 47.8537 22.4504 44.6927 19.3004ZM40.9464 37.0337C40.5951 37.9671 38.9561 38.9004 38.1366 39.0171C37.4342 39.1337 36.4976 39.1337 35.561 38.9004C34.9756 38.6671 34.1561 38.4337 33.2195 37.9671C29.0049 36.2171 26.3122 32.0171 26.0781 31.6671C25.8439 31.4337 24.322 29.4504 24.322 27.3504C24.322 25.2504 25.3756 24.3171 25.7268 23.8504C26.0781 23.3837 26.5463 23.3837 26.8976 23.3837C27.1317 23.3837 27.4829 23.3837 27.7171 23.3837C27.9512 23.3837 28.3024 23.2671 28.6537 24.0837C29.0049 24.9004 29.8244 27.0004 29.9415 27.1171C30.0585 27.3504 30.0585 27.5837 29.9415 27.8171C29.8244 28.0504 29.7073 28.2837 29.4732 28.5171C29.239 28.7504 29.0049 29.1004 28.8878 29.2171C28.6537 29.4504 28.4195 29.6837 28.6537 30.0337C28.8878 30.5004 29.7073 31.7837 30.9951 32.9504C32.6342 34.3504 33.922 34.8171 34.3903 35.0504C34.8585 35.2837 35.0927 35.1671 35.3268 34.9337C35.561 34.7004 36.3805 33.7671 36.6146 33.3004C36.8488 32.8337 37.2 32.9504 37.5512 33.0671C37.9024 33.1837 40.0098 34.2337 40.361 34.4671C40.8293 34.7004 41.0634 34.8171 41.1805 34.9337C41.2976 35.2837 41.2976 36.1004 40.9464 37.0337Z" fill="#FAFAFA"/>
</svg>
