<svg width="64" height="64" viewBox="0 0 64 64" fill="none" xmlns="http://www.w3.org/2000/svg">
<rect x="0.00976562" width="64" height="64" fill="#212121"/>
<path d="M42.0161 15.2739C35.9176 14.1092 29.5846 14.1092 23.4862 15.2739C20.7888 15.8562 17.3878 19.1171 16.8014 21.6792C15.7459 26.6871 15.7459 31.8114 16.8014 36.8192C17.5051 39.3814 20.9061 42.6423 23.4862 43.2246C23.6035 43.2246 23.7208 43.3411 23.7208 43.4576V50.7946C23.7208 51.144 24.1899 51.3769 24.4244 51.0276L27.9428 47.4173C27.9428 47.4173 30.7574 44.5057 31.2265 44.0399C31.2265 44.0399 31.3438 43.9234 31.4611 43.9234C34.9794 44.0399 38.615 43.6905 42.1333 43.1082C44.8307 42.5259 48.2318 39.2649 48.8181 36.7028C49.8736 31.6949 49.8736 26.5706 48.8181 21.5628C48.1145 19.1171 44.7134 15.8562 42.0161 15.2739ZM42.1333 37.1686C41.5469 38.3332 40.8433 39.2649 39.6705 39.8472C39.3187 39.9637 38.9668 40.0802 38.615 40.1966C38.1459 40.0802 37.7941 39.9637 37.4422 39.8472C33.6893 38.3332 30.171 36.2369 27.3564 33.2089C25.8318 31.462 24.5417 29.4822 23.4862 27.3859C23.0171 26.3377 22.548 25.406 22.1962 24.3579C21.8443 23.4262 22.4307 22.4945 23.0171 21.7957C23.6035 21.0969 24.3071 20.6311 25.1281 20.2817C25.7145 19.9323 26.3009 20.1652 26.77 20.6311C27.7082 21.7957 28.6464 22.9603 29.3501 24.2414C29.8192 25.0566 29.7019 25.9883 28.881 26.5706C28.6464 26.6871 28.5291 26.8035 28.2946 27.0365C28.1773 27.1529 27.9427 27.2694 27.8255 27.5023C27.5909 27.8517 27.5909 28.2011 27.7082 28.5505C28.6464 31.2291 30.4056 33.3254 33.103 34.49C33.5721 34.7229 33.9239 34.8394 34.5103 34.8394C35.3312 34.7229 35.6831 33.7912 36.2695 33.3254C36.8558 32.8596 37.5595 32.8596 38.2632 33.2089C38.8496 33.5583 39.4359 34.0242 40.1396 34.49C40.726 34.9559 41.3124 35.3052 41.8988 35.7711C42.2506 36.004 42.3679 36.5863 42.1333 37.1686ZM37.2077 28.434C36.9731 28.434 37.0904 28.434 37.2077 28.434C36.7386 28.434 36.6213 28.2011 36.504 27.8517C36.504 27.6188 36.504 27.2694 36.3867 27.0365C36.2694 26.5706 36.0349 26.1048 35.5658 25.7554C35.3312 25.6389 35.0967 25.5225 34.8621 25.406C34.5103 25.2895 34.2757 25.2895 33.9239 25.2895C33.5721 25.1731 33.4548 24.9402 33.4548 24.5908C33.4548 24.3579 33.8066 24.1249 34.0412 24.1249C35.9176 24.2414 37.3249 25.2895 37.5595 27.5023C37.5595 27.6188 37.5595 27.8517 37.5595 27.9682C37.5595 28.2011 37.4422 28.434 37.2077 28.434ZM36.0349 23.3097C35.4485 23.0768 34.8621 22.8439 34.1585 22.7274C33.9239 22.7274 33.5721 22.6109 33.3375 22.6109C32.9857 22.6109 32.7511 22.378 32.8684 22.0286C32.8684 21.6792 33.103 21.4463 33.4548 21.5628C34.6276 21.6792 35.6831 21.9122 36.7386 22.378C38.8496 23.4262 40.0223 25.1731 40.3742 27.5023C40.3742 27.6188 40.3742 27.7352 40.3742 27.8517C40.3742 28.0846 40.3742 28.3175 40.3742 28.6669C40.3742 28.7834 40.3742 28.8999 40.3742 29.0163C40.2569 29.4822 39.4359 29.5986 39.3187 29.0163C39.3187 28.8999 39.2014 28.6669 39.2014 28.5505C39.2014 27.5023 38.9668 26.4542 38.4977 25.5225C37.7941 24.4743 36.9731 23.7755 36.0349 23.3097ZM42.3679 30.2974C42.016 30.2974 41.7815 29.948 41.7815 29.5986C41.7815 28.8999 41.6642 28.2011 41.5469 27.5023C41.0778 23.7755 38.0286 20.7475 34.393 20.1652C33.8066 20.0488 33.2202 20.0488 32.7511 19.9323C32.3993 19.9323 31.9302 19.9323 31.8129 19.4665C31.6956 19.1171 32.0475 18.7677 32.3993 18.7677C32.5166 18.7677 32.6339 18.7677 32.6339 18.7677C32.8684 18.7677 37.4422 18.8842 32.6339 18.7677C37.5595 18.8842 41.6642 22.1451 42.4852 27.0365C42.6024 27.8517 42.7197 28.6669 42.7197 29.5986C42.9543 29.948 42.7197 30.2974 42.3679 30.2974Z" fill="#FAFAFA"/>
</svg>
